<svg width="92" height="119" viewBox="0 0 92 119" fill="none" xmlns="http://www.w3.org/2000/svg">
<path d="M36.4335 114.967C41.9796 110.936 48.1183 109.643 53.8399 108.363C58.1544 107.466 62.2995 106.49 66.246 104.602L67.2743 106.614C63.1256 108.718 58.6881 109.661 54.373 110.559C48.4813 111.761 42.8832 112.994 37.7866 116.717L36.4335 114.967Z" fill="#F47A5B"/>
<path d="M37.5127 115.976C37.8311 113.041 37.8311 113.041 38.1251 113.072C38.1251 113.072 38.2491 113.026 38.2951 113.15L41.7993 114.243L41.9233 114.197C43.6099 113.43 46.3191 112.002 47.3556 111.758C47.4335 111.588 47.3418 111.341 47.4189 111.171C47.4051 110.754 47.4822 110.584 47.6062 110.538L47.8534 110.446C47.8534 110.446 48.5643 110.464 49.2747 110.482C50.8661 110.596 52.4116 110.585 52.9985 110.649C53.1122 109.057 53.1122 109.057 53.3594 108.966L53.6065 108.874C53.7305 108.828 54.0695 108.983 55.2897 109.235C55.8766 109.298 56.6339 109.44 57.0969 109.549L57.2566 108.082C57.3346 107.912 57.412 107.743 57.5817 107.82C57.7518 107.898 57.9206 107.976 57.8435 108.145L57.6527 109.906C57.5748 110.077 57.4973 110.245 57.3276 110.168C57.2036 110.214 56.4014 109.949 55.1812 109.697C54.7183 109.588 54.255 109.478 53.961 109.446C53.9287 109.739 53.8654 110.326 53.8335 110.62C53.7241 111.083 53.7241 111.083 53.6461 111.253L53.399 111.345C53.1058 111.312 50.8035 111.181 49.3821 111.146C48.9649 111.16 48.548 111.174 48.2539 111.142L48.3 111.266C48.2827 111.977 48.2505 112.27 48.1265 112.316L47.8793 112.408C47.4621 112.422 44.9543 113.635 42.695 114.755C42.695 114.755 42.741 114.879 42.617 114.925C42.5391 115.095 42.4159 115.141 42.2459 115.063L38.8657 113.924C38.7245 114.681 38.6887 116.103 38.6887 116.103L37.5127 115.976Z" fill="#F47A5B"/>
<path d="M63.1945 107.003C63.1488 106.88 63.1488 106.88 63.1945 107.003C63.2268 106.71 63.3039 106.54 63.598 106.572C63.768 106.65 63.9369 106.728 63.8598 106.897C63.7818 107.067 63.7044 107.236 63.5346 107.159C63.4097 107.205 63.2406 107.127 63.1945 107.003Z" fill="#F47A5B"/>
<path d="M35.3327 115.798C39.7757 108.796 44.6226 91.5048 46.6882 83.4136L48.8804 84.0078C46.8603 92.2225 41.8576 109.854 37.2131 117.07L35.3327 115.798Z" fill="#F47A5B"/>
<path d="M39.3124 108.688L39.2664 108.564C39.2203 108.44 39.3443 108.394 39.3443 108.394C39.2983 108.27 39.3766 108.101 39.3306 107.977C39.2707 107.436 39.2561 107.019 39.5041 106.927C40.5866 101.877 43.9593 86.6826 46.6361 85.5476C46.7635 84.3734 46.7635 84.3734 46.8415 84.2034L47.0887 84.1116C47.2587 84.1896 47.4276 84.267 47.3505 84.4367L47.3965 84.5607C47.3186 84.7308 47.3793 85.2717 47.347 85.5649C47.3608 85.9821 47.3608 85.9821 47.2377 86.0278L46.9905 86.1196C45.5231 85.9599 42.381 96.8449 40.2619 107.068C40.3079 107.192 40.1839 107.238 40.1839 107.238C40.23 107.362 40.1977 107.655 40.2438 107.779C40.3036 108.32 40.2722 108.613 40.0702 108.829L39.6991 108.967C39.5285 108.89 39.3584 108.812 39.3124 108.688Z" fill="#F47A5B"/>
<path d="M43.8575 4.4696C56.1508 20.8905 69.0276 38.5031 70.6587 59.5867C72.0771 79.3407 62.4533 92.4907 46.9496 103.459C48.0493 102.629 49.8105 102.819 50.9102 101.989C66.3692 90.8972 75.916 77.9165 74.4963 58.1619C73.1593 37.1098 59.9435 19.342 47.8192 2.99875C47.5583 2.6733 44.1205 4.79429 43.8587 4.46919L43.8575 4.4696Z" fill="#F47A5B"/>
</svg>
