<svg width="20" height="10" viewBox="0 0 20 10" fill="none" xmlns="http://www.w3.org/2000/svg">
<mask id="mask0_105_2938" style="mask-type:luminance" maskUnits="userSpaceOnUse" x="0" y="0" width="20" height="10">
<path d="M0 0H20V9.82953H0V0Z" fill="white"/>
</mask>
<g mask="url(#mask0_105_2938)">
<path d="M17.8928 4.40972H0.505115C0.226147 4.40972 0 4.63587 0 4.91484C0 5.19381 0.226148 5.41996 0.505116 5.41996H17.8928L14.3089 8.71675C14.0825 8.92502 14.0825 9.28232 14.3089 9.49059C14.5101 9.67568 14.8195 9.67568 15.0207 9.49059L19.995 4.91469L15.0207 0.33879C14.8195 0.153701 14.5101 0.153701 14.3089 0.33879C14.0825 0.54706 14.0825 0.904361 14.3089 1.11264L17.8928 4.40972Z" fill="white"/>
</g>
</svg>
