<svg width="97" height="120" viewBox="0 0 97 120" fill="none" xmlns="http://www.w3.org/2000/svg">
<path d="M93.6511 93.1549C86.862 94.1106 81.5489 97.4464 76.5453 100.502C72.8192 102.855 69.1606 105.034 65.0103 106.419L65.6691 108.58C70.1144 107.21 73.9606 104.804 77.688 102.452C82.7598 99.2216 87.6419 96.218 93.8944 95.3539L93.6511 93.1549Z" fill="#F47A5B"/>
<path d="M93.5761 94.6303C91.3075 92.7408 91.3075 92.7408 91.1182 92.9679C91.1182 92.9679 90.997 93.021 91.0501 93.1422L89.2896 96.3631L89.1685 96.4162C87.4224 97.0365 84.4818 97.8922 83.5672 98.4371C83.3929 98.369 83.2871 98.1275 83.1138 98.0591C82.8338 97.7495 82.6604 97.681 82.5392 97.7341L82.2977 97.8399C82.2977 97.8399 81.7985 98.3463 81.3004 98.8533C80.2351 100.041 79.1166 101.107 78.7385 101.561C77.5508 100.495 77.5508 100.495 77.3093 100.601L77.0678 100.707C76.9467 100.76 76.8109 101.107 76.1083 102.136C75.7302 102.59 75.2844 103.218 75.0275 103.618L73.8929 102.674C73.7187 102.606 73.5457 102.538 73.4772 102.712C73.4091 102.886 73.3415 103.059 73.5149 103.128L74.8759 104.261C75.0501 104.329 75.2231 104.397 75.2916 104.224C75.4128 104.171 75.805 103.422 76.5077 102.393C76.7646 101.993 77.0211 101.592 77.2104 101.365C77.4374 101.553 77.8908 101.931 78.1181 102.12C78.5184 102.377 78.5184 102.377 78.6926 102.445L78.9341 102.34C79.1226 102.113 80.6871 100.419 81.6844 99.4051C81.994 99.1251 82.304 98.846 82.4932 98.6186L82.5463 98.7398C83.0528 99.239 83.2797 99.4275 83.4009 99.3744L83.6424 99.2686C83.952 98.9886 86.5984 98.1184 89.0014 97.3538C89.0014 97.3538 89.0545 97.475 89.1756 97.4219C89.3499 97.49 89.4702 97.4373 89.5383 97.2631L91.1775 94.0952C91.8051 94.5414 92.8185 95.5387 92.8185 95.5387L93.5761 94.6303Z" fill="#F47A5B"/>
<path d="M68.8735 106.025C68.8208 105.904 68.8208 105.904 68.8735 106.025C68.6465 105.836 68.4731 105.768 68.2839 105.995C68.2158 106.169 68.1481 106.342 68.3215 106.411C68.4958 106.479 68.6688 106.547 68.7373 106.373C68.8593 106.32 68.9265 106.146 68.8735 106.025Z" fill="#F47A5B"/>
<path d="M95.0202 92.9875C86.9597 91.0402 71.4583 81.974 64.3502 77.5911L63.1868 79.5417C70.348 84.0451 86.1977 93.2474 94.552 95.209L95.0202 92.9875Z" fill="#F47A5B"/>
<path d="M87.218 90.6407L87.1649 90.5195C87.1119 90.3983 86.9907 90.4514 86.9907 90.4514C86.9376 90.3302 86.7637 90.263 86.7107 90.1418C86.3776 89.711 86.0984 89.4011 85.8561 89.5072C81.5687 86.6283 68.5844 78.0455 65.8708 79.0895C64.9632 78.3337 64.9632 78.3337 64.789 78.2656L64.5475 78.3714C64.4794 78.5456 64.4117 78.7187 64.5851 78.7871L64.6382 78.9083C64.8124 78.9764 65.1447 79.4076 65.3716 79.596C65.6516 79.9056 65.6516 79.9056 65.7719 79.8529L66.0134 79.7471C66.9576 78.6125 76.7812 84.2565 85.409 90.1351C85.4621 90.2563 85.5833 90.2032 85.5833 90.2032C85.6363 90.3244 85.8633 90.5128 85.9163 90.634C86.2494 91.0647 86.4755 91.2535 86.7709 91.2685L87.1336 91.1097C87.2029 90.936 87.2711 90.7618 87.218 90.6407Z" fill="#F47A5B"/>
<path d="M11.5268 18.8557C14.0979 39.2067 17.0773 60.82 30.5557 77.1146C43.2629 92.3054 59.3214 95.0738 78.0922 92.1875C76.7242 92.3544 75.5903 93.7154 74.2223 93.8823C55.3982 96.6491 39.5127 93.9488 26.806 78.7568C13.1381 62.6893 10.2944 40.7287 7.65589 20.5511C7.61737 20.1357 11.5633 19.272 11.5257 18.8562L11.5268 18.8557Z" fill="#F47A5B"/>
</svg>
