<svg width="111" height="119" viewBox="0 0 111 119" fill="none" xmlns="http://www.w3.org/2000/svg">
<path d="M2.92965 81.1349C9.29718 83.6764 13.6655 88.1792 17.7996 92.3364C20.8599 95.5073 23.896 98.4933 27.5985 100.824L26.4449 102.767C22.4526 100.38 19.2881 97.1294 16.2265 93.9586C12.0675 89.6158 8.03888 85.5381 2.17078 83.2131L2.92965 81.1349Z" fill="#F47A5B"/>
<path d="M2.65177 82.586C5.30444 81.2896 5.30442 81.2896 5.43435 81.5553C5.43435 81.5553 5.53944 81.6356 5.4591 81.7407L6.40374 85.2877L6.50883 85.3681C8.05749 86.3855 10.7105 87.9154 11.4695 88.6621C11.655 88.6373 11.8151 88.4279 11.9998 88.4026C12.3453 88.1684 12.53 88.1431 12.6351 88.2234L12.8445 88.3836C12.8445 88.3836 13.2091 88.9941 13.5724 89.6049C14.3251 91.0117 15.1581 92.3134 15.4177 92.8437C16.8244 92.091 16.8244 92.091 17.0339 92.2511L17.2433 92.4113C17.3484 92.4916 17.3978 92.8612 17.8359 94.0275C18.0953 94.5577 18.3791 95.2741 18.5335 95.724L19.8599 95.0765C20.0453 95.0517 20.2295 95.0271 20.2548 95.2118C20.2795 95.3973 20.3041 95.5814 20.1194 95.6067L18.528 96.3847C18.3425 96.4094 18.1584 96.434 18.1331 96.2493C18.028 96.1689 17.8248 95.3488 17.3867 94.1824C17.2323 93.7325 17.0784 93.2819 16.9486 93.0161C16.6834 93.1452 16.1531 93.4047 15.8874 93.5346C15.4374 93.689 15.4374 93.689 15.252 93.7137L15.0426 93.5536C14.9135 93.2884 13.7962 91.271 13.0683 90.0497C12.8341 89.7042 12.5994 89.3593 12.4696 89.0936L12.3892 89.1987C11.7786 89.5632 11.5134 89.6923 11.4083 89.612L11.1989 89.4519C10.9647 89.1063 8.60081 87.6322 6.44833 86.3185C6.44833 86.3185 6.36798 86.4236 6.26289 86.3433C6.07746 86.368 5.9731 86.2882 5.94835 86.1028L5.10885 82.6362C4.39317 82.9204 3.17183 83.6483 3.17183 83.6483L2.65177 82.586Z" fill="#F47A5B"/>
<path d="M23.9397 99.5238C24.0194 99.4194 24.0194 99.4194 23.9397 99.5238C24.2049 99.3947 24.3896 99.3694 24.5194 99.6351C24.5441 99.8206 24.5687 100.005 24.384 100.03C24.1986 100.055 24.0144 100.079 23.9891 99.8946C23.8833 99.8137 23.8593 99.6289 23.9397 99.5238Z" fill="#F47A5B"/>
<path d="M1.63932 80.6473C9.93164 80.671 27.1433 75.5479 35.0893 72.9795L35.7559 75.1508C27.7297 77.8236 10.1473 82.9962 1.56616 82.9164L1.63932 80.6473Z" fill="#F47A5B"/>
<path d="M9.77593 80.2213L9.85627 80.1162C9.93661 80.0111 10.0417 80.0914 10.0417 80.0914C10.122 79.9863 10.3069 79.9623 10.3873 79.8572C10.8132 79.518 11.158 79.2832 11.3681 79.4439C16.2169 77.6662 30.8686 72.4146 33.2564 74.0734C34.3177 73.555 34.3177 73.555 34.5031 73.5302L34.7125 73.6903C34.7373 73.8758 34.7619 74.0599 34.5772 74.0852L34.4968 74.1903C34.3114 74.2151 33.8862 74.5549 33.621 74.684C33.2755 74.9182 33.2755 74.9182 33.1711 74.8384L32.9617 74.6783C32.3141 73.3519 21.4307 76.4999 11.6532 80.16C11.5729 80.2651 11.4678 80.1848 11.4678 80.1848C11.3874 80.2899 11.1222 80.419 11.0419 80.5241C10.616 80.8633 10.3515 80.993 10.061 80.9374L9.74648 80.697C9.72043 80.5117 9.69558 80.3264 9.77593 80.2213Z" fill="#F47A5B"/>
<path d="M100.357 28.478C93.0234 47.6351 84.9936 67.9215 68.0294 80.5467C52.0765 92.2829 35.8201 91.1563 18.2728 83.8924C19.562 84.3796 20.34 85.9711 21.6291 86.4582C39.2567 93.6187 55.3288 94.7704 71.2815 83.0329C88.3759 70.6732 96.3562 50.0174 103.714 31.0446C103.85 30.6503 100.222 28.8737 100.357 28.4787L100.357 28.478Z" fill="#F47A5B"/>
</svg>
