<svg width="15" height="14" viewBox="0 0 15 14" fill="none" xmlns="http://www.w3.org/2000/svg">
<g clip-path="url(#clip0_827_211)">
<mask id="mask0_827_211" style="mask-type:luminance" maskUnits="userSpaceOnUse" x="0" y="0" width="15" height="3">
<path d="M0.119873 0.792969H14.8799V2.1875H0.119873V0.792969Z" fill="white"/>
</mask>
<g mask="url(#mask0_827_211)">
<path d="M0.858249 2.17833H14.1423H14.1422C14.4059 2.17833 14.6495 2.04706 14.7814 1.83396C14.9132 1.62087 14.9132 1.35824 14.7814 1.14515C14.6495 0.932058 14.4059 0.800781 14.1422 0.800781H0.858135C0.594463 0.800781 0.35083 0.932053 0.218994 1.14515C0.0871582 1.35824 0.0871582 1.62087 0.218994 1.83396C0.35083 2.04705 0.594463 2.17833 0.858135 2.17833H0.858249Z" fill="white"/>
</g>
<mask id="mask1_827_211" style="mask-type:luminance" maskUnits="userSpaceOnUse" x="0" y="6" width="15" height="2">
<path d="M0.119873 6.28906H14.8799V7.71094H0.119873V6.28906Z" fill="white"/>
</mask>
<g mask="url(#mask1_827_211)">
<path d="M14.142 6.31104H0.857891C0.594219 6.31104 0.350586 6.44231 0.21875 6.6554C0.0869141 6.86849 0.0869141 7.13113 0.21875 7.34422C0.350586 7.55731 0.594219 7.68859 0.857891 7.68859H14.142H14.1419C14.4055 7.68859 14.6492 7.55731 14.781 7.34422C14.9128 7.13112 14.9128 6.86849 14.781 6.6554C14.6492 6.44231 14.4055 6.31104 14.1419 6.31104H14.142Z" fill="white"/>
</g>
<mask id="mask2_827_211" style="mask-type:luminance" maskUnits="userSpaceOnUse" x="0" y="11" width="15" height="3">
<path d="M0.119873 11.8125H14.8799V13.207H0.119873V11.8125Z" fill="white"/>
</mask>
<g mask="url(#mask2_827_211)">
<path d="M14.142 11.8213H0.857891C0.594219 11.8213 0.350586 11.9526 0.21875 12.1657C0.0869141 12.3789 0.0869141 12.6414 0.21875 12.8545C0.350586 13.0676 0.594219 13.1988 0.857891 13.1988H14.142H14.1419C14.4055 13.1988 14.6492 13.0676 14.781 12.8545C14.9128 12.6414 14.9128 12.3788 14.781 12.1657C14.6492 11.9526 14.4055 11.8213 14.1419 11.8213H14.142Z" fill="white"/>
</g>
</g>
<defs>
<clipPath id="clip0_827_211">
<rect width="15" height="14" fill="white"/>
</clipPath>
</defs>
</svg>
