<svg width="99" height="101" viewBox="0 0 99 101" fill="none" xmlns="http://www.w3.org/2000/svg">
<mask id="mask0_831_311" style="mask-type:luminance" maskUnits="userSpaceOnUse" x="0" y="25" width="65" height="57">
<path d="M0.791016 25.6445H64.7756V81.668H0.791016V25.6445Z" fill="white"/>
</mask>
<g mask="url(#mask0_831_311)">
<path d="M25.1466 81.5575C24.2697 81.5575 23.4358 81.1722 22.8572 80.4957L1.5471 55.65C0.439059 54.3609 0.566715 52.3983 1.83337 51.2678C3.10003 50.1343 5.0238 50.2707 6.12885 51.5598L24.9671 73.5234L59.242 26.8957C60.2526 25.5264 62.1582 25.2467 63.5011 26.2747C64.8463 27.3026 65.1205 29.2498 64.1099 30.623L27.5785 80.3162C27.0271 81.0644 26.1751 81.5244 25.2589 81.5552C25.2227 81.5575 25.1857 81.5575 25.1464 81.5575L25.1466 81.5575Z" fill="#F47A5B"/>
</g>
<mask id="mask1_831_311" style="mask-type:luminance" maskUnits="userSpaceOnUse" x="73" y="34" width="26" height="8">
<path d="M73.6699 34.916H98.2072V41.2285H73.6699V34.916Z" fill="white"/>
</mask>
<g mask="url(#mask1_831_311)">
<path d="M95.164 41.1831H76.8984C75.2148 41.1831 73.8545 39.7915 73.8545 38.0778C73.8545 36.3633 75.2156 34.9724 76.8984 34.9724H95.164C96.8476 34.9724 98.2079 36.3641 98.2079 38.0778C98.2079 39.7923 96.8476 41.1831 95.164 41.1831Z" fill="#F47A5B"/>
</g>
<path d="M70.8105 72.2406H52.5448C50.8643 72.2406 49.501 70.8521 49.501 69.1353C49.501 67.4177 50.8651 66.0299 52.5448 66.0299H70.8105C72.4941 66.0299 73.8544 67.4185 73.8544 69.1353C73.8544 70.8521 72.4941 72.2406 70.8105 72.2406Z" fill="#F47A5B"/>
<path d="M82.9863 56.7119H64.7206C63.037 56.7119 61.6768 55.3233 61.6768 53.6065C61.6768 51.892 63.0378 50.5012 64.7206 50.5012H82.9863C84.6699 50.5012 86.0302 51.8928 86.0302 53.6065C86.0302 55.3234 84.6699 56.7119 82.9863 56.7119Z" fill="#F47A5B"/>
</svg>
