<svg width="19" height="19" viewBox="0 0 19 19" fill="none" xmlns="http://www.w3.org/2000/svg">
<path d="M7.91675 9.49999C7.91675 9.91992 8.08356 10.3226 8.3805 10.6196C8.67743 10.9165 9.08016 11.0833 9.50008 11.0833C9.92001 11.0833 10.3227 10.9165 10.6197 10.6196C10.9166 10.3226 11.0834 9.91992 11.0834 9.49999C11.0834 9.08006 10.9166 8.67734 10.6197 8.3804C10.3227 8.08347 9.92001 7.91666 9.50008 7.91666C9.08016 7.91666 8.67743 8.08347 8.3805 8.3804C8.08356 8.67734 7.91675 9.08006 7.91675 9.49999Z" stroke="white" stroke-linecap="round" stroke-linejoin="round"/>
<path d="M16.625 9.5C14.725 12.6667 12.35 14.25 9.5 14.25C6.65 14.25 4.275 12.6667 2.375 9.5C4.275 6.33333 6.65 4.75 9.5 4.75C12.35 4.75 14.725 6.33333 16.625 9.5Z" stroke="white" stroke-linecap="round" stroke-linejoin="round"/>
</svg>
