<svg width="39" height="20" viewBox="0 0 39 20" fill="none" xmlns="http://www.w3.org/2000/svg">
<mask id="mask0_665_314" style="mask-type:luminance" maskUnits="userSpaceOnUse" x="0" y="0" width="39" height="20">
<path d="M39 0H-2.1274e-08V19.1676H39V0Z" fill="white"/>
</mask>
<g mask="url(#mask0_665_314)">
<path d="M4.10909 8.59855H38.015C38.559 8.59855 39 9.03954 39 9.58353C39 10.1275 38.559 10.5685 38.015 10.5685H4.10909L11.1178 17.0158C11.5485 17.4119 11.5485 18.0916 11.1178 18.4877L11.0807 18.5219C10.698 18.874 10.1093 18.874 9.72661 18.5219L0.00976885 9.58323L9.72661 0.644535C10.1093 0.292483 10.698 0.292483 11.0807 0.644535L11.1179 0.67878C11.5485 1.07492 11.5485 1.75453 11.1179 2.15068L4.10909 8.59855Z" fill="#00274A"/>
</g>
</svg>
