<svg width="22" height="22" viewBox="0 0 22 22" fill="none" xmlns="http://www.w3.org/2000/svg">
<mask id="mask0_163_2370" style="mask-type:luminance" maskUnits="userSpaceOnUse" x="0" y="0" width="22" height="22">
<path d="M0 0H22V22H0V0Z" fill="white"/>
</mask>
<g mask="url(#mask0_163_2370)">
<path d="M21.7113 6.36271C21.3681 5.56849 20.4221 4.9657 19.6059 5.02282C18.7897 5.07996 17.8459 4.76099 17.4278 4.36288C17.0097 3.96476 16.6709 3.02299 16.7018 2.20253C16.7327 1.38189 16.1012 0.462169 15.2939 0.140953C14.4866 -0.180242 13.3952 0.0640243 12.8584 0.677754C12.3216 1.29167 11.4219 1.74267 10.8499 1.76022C10.278 1.77779 9.36712 1.34879 8.81276 0.750417C8.25823 0.152044 7.15611 -0.0613573 6.36194 0.281867C5.56776 0.625092 4.96048 1.57106 5.01782 2.38728C5.07496 3.20347 4.75598 4.14729 4.35787 4.56536C3.95975 4.98344 3.01799 5.31775 2.2018 5.29133C1.38544 5.26489 0.461444 5.89398 0.140228 6.70148C-0.180966 7.5088 0.0632995 8.6 0.67703 9.1368C1.29095 9.6736 1.74194 10.5734 1.7595 11.1433C1.77707 11.713 1.35029 12.6261 0.749692 13.1804C0.149093 13.7348 -0.0664931 14.8349 0.281142 15.6335C0.628772 16.4321 1.57033 17.0349 2.38656 16.9776C3.20274 16.9205 4.14657 17.2394 4.56464 17.6376C4.98272 18.0357 5.32148 18.973 5.29061 19.7936C5.25973 20.6143 5.8912 21.5338 6.70075 21.855C7.5103 22.1762 8.5994 21.9319 9.13621 21.3182C9.67301 20.7045 10.5706 20.2535 11.1427 20.2446C11.7146 20.2357 12.6255 20.6605 13.1843 21.2589C13.7431 21.8573 14.8431 22.062 15.6373 21.7187C16.4316 21.3755 17.0388 20.434 16.9815 19.6178C16.9243 18.8016 17.2433 17.8578 17.6414 17.4397C18.0395 17.0216 18.9789 16.6873 19.7995 16.7202C20.6202 16.7531 21.5398 16.1196 21.8609 15.31C22.1821 14.5005 21.9423 13.4114 21.3241 12.8703C20.7058 12.3291 20.255 11.4402 20.2394 10.8616C20.2241 10.283 20.6509 9.3788 21.2537 8.82445C21.5541 8.49882 21.7564 8.09507 21.8374 7.65958C21.9182 7.22393 21.8746 6.77445 21.7113 6.36271H21.7113ZM12.6914 14.9294C11.6488 15.38 10.47 15.3981 9.4141 14.9793C8.35823 14.5606 7.51218 13.7396 7.06188 12.6968C6.61171 11.6541 6.59416 10.4751 7.01343 9.41957C7.43254 8.36387 8.25402 7.51816 9.29693 7.06835C10.34 6.61853 11.5188 6.60163 12.5742 7.02144C13.6297 7.44106 14.4751 8.2629 14.9244 9.30611C15.3735 10.3471 15.3914 11.5238 14.974 12.5781C14.5566 13.6323 13.738 14.4778 12.698 14.9293L12.6914 14.9294Z" fill="white"/>
</g>
</svg>
