<svg width="28" height="34" viewBox="0 0 28 34" fill="none" xmlns="http://www.w3.org/2000/svg">
<g clip-path="url(#clip0_535_452)">
<path d="M27.7626 10.0569H27.5559L27.7626 10.028V10.0277C27.736 9.82103 27.6431 9.62813 27.4982 9.47816L18.8981 0.882111C18.8506 0.833725 18.7981 0.790785 18.741 0.753937L18.6997 0.729263C18.6558 0.702026 18.61 0.677353 18.5632 0.654922L18.4889 0.634415V0.634094C18.4504 0.617432 18.4104 0.604934 18.369 0.596924C18.3024 0.583786 18.2348 0.577057 18.1665 0.576416H4.3631C3.79241 0.576416 3.32967 1.0388 3.32967 1.60952V12.719C3.32967 13.2897 3.79238 13.7521 4.3631 13.7521C4.93347 13.7521 5.3962 13.2897 5.3962 12.719V2.65542H17.1332V10.1523C17.1355 10.7205 17.5943 11.1813 18.1622 11.1858L25.7087 11.2271V31.2337H5.39612V29.6341C5.39612 29.0637 4.93342 28.601 4.36302 28.601C3.79233 28.601 3.32959 29.0637 3.32959 29.6341V32.2668C3.32959 32.5408 3.43854 32.8035 3.6324 32.9974C3.82595 33.1912 4.0887 33.2999 4.36299 33.2999H26.7419C27.0159 33.2999 27.2787 33.1912 27.4725 32.9974C27.6661 32.8035 27.775 32.5408 27.775 32.2668V10.1971C27.775 10.15 27.7708 10.1032 27.7625 10.0568L27.7626 10.0569ZM19.1993 9.12278V4.11789L24.233 9.14739L19.1993 9.12278Z" fill="#F47A5B"/>
<path d="M12.5743 19.7727C12.5038 19.6355 12.382 19.5314 12.2353 19.4833C12.0254 19.4179 11.8062 19.3888 11.5864 19.3965H10.8882V22.9796H11.5867H11.5864C11.9065 23.0097 12.2237 22.9014 12.4586 22.6822C12.6525 22.4201 12.7582 22.1032 12.7602 21.777V21.033V21.0333C12.7624 20.7792 12.7515 20.5254 12.7272 20.2726C12.7079 20.0979 12.656 19.9284 12.5743 19.7727Z" fill="#F47A5B"/>
<path d="M6.76747 19.3805H5.89941V21.3189H6.76714C7.30451 21.3189 7.56887 20.9882 7.56887 20.3063H7.56919C7.59642 20.0538 7.5317 19.8 7.3875 19.5911C7.2212 19.434 6.99497 19.3571 6.76747 19.3805Z" fill="#F47A5B"/>
<path d="M22.1253 14.9911H1.25901C0.688324 14.9911 0.225586 15.4538 0.225586 16.0245V26.3276C0.225586 26.6016 0.334532 26.8647 0.528397 27.0582C0.721941 27.2521 0.984695 27.361 1.25898 27.361H22.1253C22.3992 27.361 22.662 27.2521 22.8559 27.0582C23.0497 26.8647 23.1587 26.6016 23.1587 26.3276V16.0245C23.1587 15.7505 23.0497 15.4878 22.8559 15.2939C22.662 15.1 22.3993 14.9911 22.1253 14.9911ZM8.35472 21.9054C7.92854 22.3021 7.35656 22.5043 6.77594 22.4633H5.89952V24.1411L4.58538 24.1414V18.2396H6.77586C8.18516 18.2396 8.89588 18.9382 8.89588 20.3061C8.93369 20.8896 8.73924 21.4648 8.35472 21.9054ZM14.0001 22.4014C13.9424 22.7356 13.8203 23.0558 13.6406 23.3435C13.4512 23.6267 13.1759 23.8411 12.8552 23.9552C12.4422 24.091 12.0086 24.1539 11.5741 24.1413H9.57362V18.2396H11.5863C12.0054 18.2297 12.4236 18.2838 12.8263 18.4008C13.1391 18.4928 13.4143 18.6824 13.6114 18.942C13.802 19.2016 13.9344 19.4989 14.0001 19.8142C14.0776 20.2366 14.1122 20.666 14.1033 21.0953C14.1087 21.533 14.0741 21.9701 14.0001 22.4014ZM18.8025 19.3967H16.2938V20.9467H18.3602V22.1079H16.2938V24.1414H14.9794V18.2397H18.8022L18.8025 19.3967Z" fill="#F47A5B"/>
</g>
<defs>
<clipPath id="clip0_535_452">
<rect width="28" height="34" fill="white"/>
</clipPath>
</defs>
</svg>
