<svg width="85" height="85" viewBox="0 0 85 85" fill="none" xmlns="http://www.w3.org/2000/svg">
<path d="M71.5996 20.3701L57.6594 6.42996C57.5122 6.25357 57.3196 6.12062 57.1024 6.04669C56.8845 5.99481 56.6575 5.99481 56.4396 6.04669H14.6202C13.6579 6.04669 12.8778 6.82683 12.8778 7.78919V56.4401C12.8778 57.4024 13.6579 58.1826 14.6202 58.1826C15.5826 58.1826 16.3627 57.4024 16.3627 56.4401V9.3929H54.6974V21.5906C54.6974 22.0523 54.8809 22.4959 55.2078 22.8227C55.534 23.1496 55.9775 23.3331 56.4393 23.3331H68.637V75.6081L16.362 75.6074V63.4098C16.362 62.4474 15.5818 61.6673 14.6195 61.6673C13.6571 61.6673 12.877 62.4474 12.877 63.4098V77.3499C12.877 77.8123 13.0605 78.2552 13.3873 78.5821C13.7142 78.9089 14.1571 79.0925 14.6195 79.0925H70.3791C70.8415 79.0925 71.2844 78.9089 71.6113 78.5821C71.9382 78.2552 72.1217 77.8123 72.1217 77.3499V21.5903C72.1735 21.3724 72.1735 21.1454 72.1217 20.9281C72.0101 20.6921 71.8272 20.4975 71.599 20.3704L71.5996 20.3701ZM58.1822 11.8663L66.1632 19.8473H58.1822V11.8663Z" fill="#F47A5B"/>
<path d="M21.5911 30.3028H35.5313C35.993 30.3028 36.4366 30.1193 36.7635 29.7925C37.0903 29.4656 37.2738 29.0221 37.2738 28.5603V14.6202C37.2738 14.1578 37.0903 13.7149 36.7635 13.388C36.4366 13.0612 35.993 12.8776 35.5313 12.8776H21.5911C20.6288 12.8776 19.8486 13.6578 19.8486 14.6201V28.5603C19.8486 29.022 20.0322 29.4656 20.359 29.7925C20.6858 30.1193 21.1287 30.3028 21.5911 30.3028ZM23.3336 16.3627H33.7888V26.8178H23.3336V16.3627Z" fill="#F47A5B"/>
<path d="M21.5911 37.2722H63.4105C64.3728 37.2722 65.153 36.492 65.153 35.5297C65.153 34.5673 64.3728 33.7872 63.4105 33.7872H21.5911C20.6288 33.7872 19.8486 34.5673 19.8486 35.5297C19.8486 36.492 20.6288 37.2722 21.5911 37.2722Z" fill="#F47A5B"/>
<path d="M21.5911 44.2432H63.4105C64.3728 44.2432 65.153 43.463 65.153 42.5007C65.153 41.5383 64.3728 40.7582 63.4105 40.7582H21.5911C20.6288 40.7582 19.8486 41.5383 19.8486 42.5007C19.8486 43.463 20.6288 44.2432 21.5911 44.2432Z" fill="#F47A5B"/>
<path d="M21.5911 51.2125H49.4718C50.4342 51.2125 51.2143 50.4324 51.2143 49.47C51.2143 48.5076 50.4342 47.7275 49.4718 47.7275H21.5911C20.6288 47.7275 19.8486 48.5076 19.8486 49.47C19.8486 50.4324 20.6288 51.2125 21.5911 51.2125Z" fill="#F47A5B"/>
<path d="M64.6304 55.2201C64.3146 54.8829 63.8729 54.6916 63.4105 54.6916C62.9488 54.6916 62.5072 54.8829 62.1914 55.2201L56.4404 60.9354L50.6901 55.2201C50.017 54.5463 48.9242 54.5463 48.2512 55.2201C47.5774 55.8933 47.5774 56.986 48.2512 57.6591L53.9664 63.4093L48.2512 69.1596C47.914 69.4761 47.7227 69.9177 47.7227 70.3794C47.7227 70.8418 47.914 71.2835 48.2512 71.5993C48.567 71.9365 49.0086 72.1278 49.471 72.1278C49.9327 72.1278 50.3744 71.9365 50.6902 71.5993L56.4405 65.884L62.1908 71.5993H62.1914C62.5072 71.9365 62.9489 72.1278 63.4106 72.1278C63.873 72.1278 64.3146 71.9365 64.6304 71.5993C64.9676 71.2835 65.159 70.8418 65.159 70.3794C65.159 69.9177 64.9677 69.4761 64.6304 69.1596L58.9152 63.4093L64.6304 57.6591C64.9676 57.3432 65.159 56.9016 65.159 56.4392C65.159 55.9775 64.9676 55.5359 64.6304 55.2201Z" fill="#F47A5B"/>
</svg>
